<?xml version="1.0" encoding="UTF-8"?>
<svg width="226px" height="84px" viewBox="0 0 226 84" version="1.1" xmlns="http://www.w3.org/2000/svg" xmlns:xlink="http://www.w3.org/1999/xlink">
    <title>logo</title>
    <defs>
        <rect id="path-1" x="0" y="0" width="40.31" height="70"></rect>
    </defs>
    <g id="Page-1" stroke="none" stroke-width="1" fill="none" fill-rule="evenodd">
        <g id="logo" transform="translate(0.690000, 0.000000)">
            <g id="Group-3" transform="translate(0.000000, 1.000000)">
                <mask id="mask-2" fill="white">
                    <use xlink:href="#path-1"></use>
                </mask>
                <g id="Mask"></g>
                <g mask="url(#mask-2)" id="noun_buildings_1936890-2">
                    <g transform="translate(1.310000, 2.000000)">
                        <g>
                            <g id="noun_buildings_1936890" fill="#FFFFFF" fill-rule="nonzero">
                                <path d="M25.5,36 C25.7763672,36 26,35.613121 26,35.1359561 L26,32.8640439 C26,32.386879 25.7763672,32 25.5,32 C25.2236328,32 25,32.386879 25,32.8640439 L25,35.1359561 C25,35.613121 25.2236328,36 25.5,36 Z" id="Path"></path>
                                <path d="M29.5,36 C29.7763672,36 30,35.613121 30,35.1359561 L30,32.8640439 C30,32.386879 29.7763672,32 29.5,32 C29.2236328,32 29,32.386879 29,32.8640439 L29,35.1359561 C29,35.613121 29.2236328,36 29.5,36 Z" id="Path"></path>
                                <path d="M25.5,42 C25.7763672,42 26,41.613121 26,41.1359561 L26,38.8640439 C26,38.386879 25.7763672,38 25.5,38 C25.2236328,38 25,38.386879 25,38.8640439 L25,41.1359561 C25,41.613121 25.2236328,42 25.5,42 Z" id="Path"></path>
                                <path d="M29.5,42 C29.7763672,42 30,41.613121 30,41.1359561 L30,38.8640439 C30,38.386879 29.7763672,38 29.5,38 C29.2236328,38 29,38.386879 29,38.8640439 L29,41.1359561 C29,41.613121 29.2236328,42 29.5,42 Z" id="Path"></path>
                                <path d="M32.5,36 C32.7763672,36 33,35.613121 33,35.1359561 L33,32.8640439 C33,32.386879 32.7763672,32 32.5,32 C32.2236328,32 32,32.386879 32,32.8640439 L32,35.1359561 C32,35.613121 32.2236328,36 32.5,36 Z" id="Path"></path>
                                <path d="M32.5,42 C32.7763672,42 33,41.613121 33,41.1359561 L33,38.8640439 C33,38.386879 32.7763672,38 32.5,38 C32.2236328,38 32,38.386879 32,38.8640439 L32,41.1359561 C32,41.613121 32.2236328,42 32.5,42 Z" id="Path"></path>
                                <path d="M25.5,48 C25.7763672,48 26,47.613121 26,47.1359561 L26,44.8640439 C26,44.386879 25.7763672,44 25.5,44 C25.2236328,44 25,44.386879 25,44.8640439 L25,47.1359561 C25,47.613121 25.2236328,48 25.5,48 Z" id="Path"></path>
                                <path d="M29.5,48 C29.7763672,48 30,47.613121 30,47.1359561 L30,44.8640439 C30,44.386879 29.7763672,44 29.5,44 C29.2236328,44 29,44.386879 29,44.8640439 L29,47.1359561 C29,47.613121 29.2236328,48 29.5,48 Z" id="Path"></path>
                                <path d="M32.5,48 C32.7763672,48 33,47.613121 33,47.1359561 L33,44.8640439 C33,44.386879 32.7763672,44 32.5,44 C32.2236328,44 32,44.386879 32,44.8640439 L32,47.1359561 C32,47.613121 32.2236328,48 32.5,48 Z" id="Path"></path>
                                <path d="M25.5,25 C25.7763672,25 26,24.613121 26,24.1359561 L26,21.8640439 C26,21.386879 25.7763672,21 25.5,21 C25.2236328,21 25,21.386879 25,21.8640439 L25,24.1359561 C25,24.613121 25.2236328,25 25.5,25 Z" id="Path"></path>
                                <path d="M29.5,25 C29.7763672,25 30,24.613121 30,24.1359561 L30,21.8640439 C30,21.386879 29.7763672,21 29.5,21 C29.2236328,21 29,21.386879 29,21.8640439 L29,24.1359561 C29,24.613121 29.2236328,25 29.5,25 Z" id="Path"></path>
                                <path d="M32.5,25 C32.7763672,25 33,24.613121 33,24.1359561 L33,21.8640439 C33,21.386879 32.7763672,21 32.5,21 C32.2236328,21 32,21.386879 32,21.8640439 L32,24.1359561 C32,24.613121 32.2236328,25 32.5,25 Z" id="Path"></path>
                                <path d="M25.5,31 C25.7763672,31 26,30.613121 26,30.1359561 L26,27.8640439 C26,27.386879 25.7763672,27 25.5,27 C25.2236328,27 25,27.386879 25,27.8640439 L25,30.1359561 C25,30.613121 25.2236328,31 25.5,31 Z" id="Path"></path>
                                <path d="M29.5,31 C29.7763672,31 30,30.613121 30,30.1359561 L30,27.8640439 C30,27.386879 29.7763672,27 29.5,27 C29.2236328,27 29,27.386879 29,27.8640439 L29,30.1359561 C29,30.613121 29.2236328,31 29.5,31 Z" id="Path"></path>
                                <path d="M32.5,31 C32.7763672,31 33,30.613121 33,30.1359561 L33,27.8640439 C33,27.386879 32.7763672,27 32.5,27 C32.2236328,27 32,27.386879 32,27.8640439 L32,30.1359561 C32,30.613121 32.2236328,31 32.5,31 Z" id="Path"></path>
                                <path d="M29.5,13 C29.7763672,13 30,12.613121 30,12.1359561 L30,9.86404386 C30,9.38687901 29.7763672,9 29.5,9 C29.2236328,9 29,9.38687901 29,9.86404386 L29,12.135956 C29,12.613121 29.2236328,13 29.5,13 Z" id="Path"></path>
                                <path d="M32.5,13 C32.7763672,13 33,12.613121 33,12.1359561 L33,9.86404386 C33,9.38687901 32.7763672,9 32.5,9 C32.2236328,9 32,9.38687901 32,9.86404386 L32,12.135956 C32,12.613121 32.2236328,13 32.5,13 Z" id="Path"></path>
                                <path d="M25.5,19 C25.7763672,19 26,18.613121 26,18.1359561 L26,15.8640439 C26,15.386879 25.7763672,15 25.5,15 C25.2236328,15 25,15.386879 25,15.8640439 L25,18.1359561 C25,18.613121 25.2236328,19 25.5,19 Z" id="Path"></path>
                                <path d="M29.5,19 C29.7763672,19 30,18.613121 30,18.1359561 L30,15.8640439 C30,15.386879 29.7763672,15 29.5,15 C29.2236328,15 29,15.386879 29,15.8640439 L29,18.1359561 C29,18.613121 29.2236328,19 29.5,19 Z" id="Path"></path>
                                <path d="M32.5,19 C32.7763672,19 33,18.613121 33,18.1359561 L33,15.8640439 C33,15.386879 32.7763672,15 32.5,15 C32.2236328,15 32,15.386879 32,15.8640439 L32,18.1359561 C32,18.613121 32.2236328,19 32.5,19 Z" id="Path"></path>
                                <path d="M6.5,36 C6.7763672,36 7,35.613121 7,35.1359561 L7,32.8640439 C7,32.386879 6.7763672,32 6.5,32 C6.2236328,32 6,32.386879 6,32.8640439 L6,35.1359561 C6,35.613121 6.22363285,36 6.5,36 Z" id="Path"></path>
                                <path d="M10.5,36 C10.7763672,36 11,35.613121 11,35.1359561 L11,32.8640439 C11,32.386879 10.7763672,32 10.5,32 C10.2236328,32 10,32.386879 10,32.8640439 L10,35.1359561 C10,35.613121 10.2236328,36 10.5,36 Z" id="Path"></path>
                                <path d="M6.5,42 C6.7763672,42 7,41.613121 7,41.1359561 L7,38.8640439 C7,38.386879 6.7763672,38 6.5,38 C6.2236328,38 6,38.386879 6,38.8640439 L6,41.1359561 C6,41.613121 6.22363285,42 6.5,42 Z" id="Path"></path>
                                <path d="M10.5,42 C10.7763672,42 11,41.613121 11,41.1359561 L11,38.8640439 C11,38.386879 10.7763672,38 10.5,38 C10.2236328,38 10,38.386879 10,38.8640439 L10,41.1359561 C10,41.613121 10.2236328,42 10.5,42 Z" id="Path"></path>
                                <path d="M13.5,36 C13.7763672,36 14,35.613121 14,35.1359561 L14,32.8640439 C14,32.386879 13.7763672,32 13.5,32 C13.2236328,32 13,32.386879 13,32.8640439 L13,35.1359561 C13,35.613121 13.2236328,36 13.5,36 Z" id="Path"></path>
                                <path d="M13.5,42 C13.7763672,42 14,41.613121 14,41.1359561 L14,38.8640439 C14,38.386879 13.7763672,38 13.5,38 C13.2236328,38 13,38.386879 13,38.8640439 L13,41.1359561 C13,41.613121 13.2236328,42 13.5,42 Z" id="Path"></path>
                                <path d="M6.5,48 C6.7763672,48 7,47.613121 7,47.1359561 L7,44.8640439 C7,44.386879 6.7763672,44 6.5,44 C6.2236328,44 6,44.386879 6,44.8640439 L6,47.1359561 C6,47.613121 6.22363285,48 6.5,48 Z" id="Path"></path>
                                <path d="M10.5,48 C10.7763672,48 11,47.613121 11,47.1359561 L11,44.8640439 C11,44.386879 10.7763672,44 10.5,44 C10.2236328,44 10,44.386879 10,44.8640439 L10,47.1359561 C10,47.613121 10.2236328,48 10.5,48 Z" id="Path"></path>
                                <path d="M13.5,48 C13.7763672,48 14,47.613121 14,47.1359561 L14,44.8640439 C14,44.386879 13.7763672,44 13.5,44 C13.2236328,44 13,44.386879 13,44.8640439 L13,47.1359561 C13,47.613121 13.2236328,48 13.5,48 Z" id="Path"></path>
                                <path d="M6.5,25 C6.7763672,25 7,24.613121 7,24.1359561 L7,21.8640439 C7,21.386879 6.7763672,21 6.5,21 C6.2236328,21 6,21.386879 6,21.8640439 L6,24.1359561 C6,24.613121 6.22363285,25 6.5,25 Z" id="Path"></path>
                                <path d="M10.5,25 C10.7763672,25 11,24.613121 11,24.1359561 L11,21.8640439 C11,21.386879 10.7763672,21 10.5,21 C10.2236328,21 10,21.386879 10,21.8640439 L10,24.1359561 C10,24.613121 10.2236328,25 10.5,25 Z" id="Path"></path>
                                <path d="M13.5,25 C13.7763672,25 14,24.613121 14,24.1359561 L14,21.8640439 C14,21.386879 13.7763672,21 13.5,21 C13.2236328,21 13,21.386879 13,21.8640439 L13,24.1359561 C13,24.613121 13.2236328,25 13.5,25 Z" id="Path"></path>
                                <path d="M6.5,31 C6.7763672,31 7,30.613121 7,30.1359561 L7,27.8640439 C7,27.386879 6.7763672,27 6.5,27 C6.2236328,27 6,27.386879 6,27.8640439 L6,30.1359561 C6,30.613121 6.22363285,31 6.5,31 Z" id="Path"></path>
                                <path d="M10.5,31 C10.7763672,31 11,30.613121 11,30.1359561 L11,27.8640439 C11,27.386879 10.7763672,27 10.5,27 C10.2236328,27 10,27.386879 10,27.8640439 L10,30.1359561 C10,30.613121 10.2236328,31 10.5,31 Z" id="Path"></path>
                                <path d="M13.5,31 C13.7763672,31 14,30.613121 14,30.1359561 L14,27.8640439 C14,27.386879 13.7763672,27 13.5,27 C13.2236328,27 13,27.386879 13,27.8640439 L13,30.1359561 C13,30.613121 13.2236328,31 13.5,31 Z" id="Path"></path>
                                <path d="M51.5,36 C51.7763672,36 52,35.613121 52,35.1359561 L52,32.8640439 C52,32.386879 51.7763672,32 51.5,32 C51.2236328,32 51,32.386879 51,32.8640439 L51,35.1359561 C51,35.613121 51.2236328,36 51.5,36 Z" id="Path"></path>
                                <path d="M48.5,36 C48.7763672,36 49,35.613121 49,35.1359561 L49,32.8640439 C49,32.386879 48.7763672,32 48.5,32 C48.2236328,32 48,32.386879 48,32.8640439 L48,35.1359561 C48,35.613121 48.2236329,36 48.5,36 Z" id="Path"></path>
                                <path d="M51.5,42 C51.7763672,42 52,41.613121 52,41.1359561 L52,38.8640439 C52,38.386879 51.7763672,38 51.5,38 C51.2236328,38 51,38.386879 51,38.8640439 L51,41.1359561 C51,41.613121 51.2236328,42 51.5,42 Z" id="Path"></path>
                                <path d="M48.5,42 C48.7763672,42 49,41.613121 49,41.1359561 L49,38.8640439 C49,38.386879 48.7763672,38 48.5,38 C48.2236328,38 48,38.386879 48,38.8640439 L48,41.1359561 C48,41.613121 48.2236329,42 48.5,42 Z" id="Path"></path>
                                <path d="M44.5,36 C44.7763672,36 45,35.613121 45,35.1359561 L45,32.8640439 C45,32.386879 44.7763672,32 44.5,32 C44.2236328,32 44,32.386879 44,32.8640439 L44,35.1359561 C44,35.613121 44.2236328,36 44.5,36 Z" id="Path"></path>
                                <path d="M44.5,42 C44.7763672,42 45,41.613121 45,41.1359561 L45,38.8640439 C45,38.386879 44.7763672,38 44.5,38 C44.2236328,38 44,38.386879 44,38.8640439 L44,41.1359561 C44,41.613121 44.2236328,42 44.5,42 Z" id="Path"></path>
                                <path d="M51.5,48 C51.7763672,48 52,47.613121 52,47.1359561 L52,44.8640439 C52,44.386879 51.7763672,44 51.5,44 C51.2236328,44 51,44.386879 51,44.8640439 L51,47.1359561 C51,47.613121 51.2236328,48 51.5,48 Z" id="Path"></path>
                                <path d="M48.5,48 C48.7763672,48 49,47.613121 49,47.1359561 L49,44.8640439 C49,44.386879 48.7763672,44 48.5,44 C48.2236328,44 48,44.386879 48,44.8640439 L48,47.1359561 C48,47.613121 48.2236329,48 48.5,48 Z" id="Path"></path>
                                <path d="M44.5,48 C44.7763672,48 45,47.613121 45,47.1359561 L45,44.8640439 C45,44.386879 44.7763672,44 44.5,44 C44.2236328,44 44,44.386879 44,44.8640439 L44,47.1359561 C44,47.613121 44.2236328,48 44.5,48 Z" id="Path"></path>
                                <path d="M51.5,25 C51.7763672,25 52,24.613121 52,24.1359561 L52,21.8640439 C52,21.386879 51.7763672,21 51.5,21 C51.2236328,21 51,21.386879 51,21.8640439 L51,24.1359561 C51,24.613121 51.2236328,25 51.5,25 Z" id="Path"></path>
                                <path d="M48.5,25 C48.7763672,25 49,24.613121 49,24.1359561 L49,21.8640439 C49,21.386879 48.7763672,21 48.5,21 C48.2236328,21 48,21.386879 48,21.8640439 L48,24.1359561 C48,24.613121 48.2236329,25 48.5,25 Z" id="Path"></path>
                                <path d="M44.5,25 C44.7763672,25 45,24.613121 45,24.1359561 L45,21.8640439 C45,21.386879 44.7763672,21 44.5,21 C44.2236328,21 44,21.386879 44,21.8640439 L44,24.1359561 C44,24.613121 44.2236328,25 44.5,25 Z" id="Path"></path>
                                <path d="M51.5,31 C51.7763672,31 52,30.613121 52,30.1359561 L52,27.8640439 C52,27.386879 51.7763672,27 51.5,27 C51.2236328,27 51,27.386879 51,27.8640439 L51,30.1359561 C51,30.613121 51.2236328,31 51.5,31 Z" id="Path"></path>
                                <path d="M48.5,31 C48.7763672,31 49,30.613121 49,30.1359561 L49,27.8640439 C49,27.386879 48.7763672,27 48.5,27 C48.2236328,27 48,27.386879 48,27.8640439 L48,30.1359561 C48,30.613121 48.2236329,31 48.5,31 Z" id="Path"></path>
                                <path d="M44.5,31 C44.7763672,31 45,30.613121 45,30.1359561 L45,27.8640439 C45,27.386879 44.7763672,27 44.5,27 C44.2236328,27 44,27.386879 44,27.8640439 L44,30.1359561 C44,30.613121 44.2236328,31 44.5,31 Z" id="Path"></path>
                                <g id="Group">
                                    <path d="M57.67,59.71875 L56.8458985,59.71875 L56.8458985,19.3282929 C56.8458985,19.2023087 56.8159571,19.0781936 56.7596387,18.9671631 C56.5536133,18.5637893 51.5918945,9.09179688 40.2626367,9.09179688 C39.8591406,9.09179688 39.5326367,9.43460845 39.5326367,9.85742188 L39.5326367,59.71875 L37.8566309,59.71875 L37.8566309,0.765625 C37.8566309,0.34281158 37.530127,0 37.1266309,0 C25.8166211,0 20.8499122,8.6200104 20.6438867,8.98674777 C20.5783008,9.10450748 20.5433692,9.23871618 20.5433692,9.37516786 L20.5433692,59.71875 L18.8673633,59.71875 L18.8673633,9.85742188 C18.8673633,9.43460845 18.5408594,9.09179688 18.1373633,9.09179688 C6.80810556,9.09179688 1.84638681,18.5637893 1.64036139,18.9671631 C1.58404306,19.0781936 1.5541016,19.2023087 1.5541016,19.3282929 L1.5541016,59.71875 L0.73,59.71875 C0.326503888,59.71875 0,60.0615616 0,60.484375 C0,60.9071884 0.326503888,61.25 0.73,61.25 L57.67,61.25 C58.0734961,61.25 58.4,60.9071884 58.4,60.484375 C58.4,60.0615616 58.0734961,59.71875 57.67,59.71875 Z M40.9926367,10.6380004 C50.1689649,11.0118407 54.7164942,18.3574294 55.3858985,19.5331573 L55.3858985,59.71875 L52.3411426,59.71875 L52.3411426,51.2280883 C52.3411426,50.8052749 52.0146388,50.4624633 51.6111426,50.4624633 L44.7673926,50.4624633 C44.3638965,50.4624633 44.0373926,50.8052749 44.0373926,51.2280883 L44.0373926,59.71875 L40.9926367,59.71875 L40.9926367,10.6380004 L40.9926367,10.6380004 Z M50.8811426,59.71875 L45.4973926,59.71875 L45.4973926,51.9937133 L50.8811426,51.9937133 L50.8811426,59.71875 Z M22.0033692,9.59835053 C22.7219629,8.46075443 27.2694922,1.88079073 36.3966309,1.54470823 L36.3966309,59.71875 L33.351875,59.71875 L33.351875,51.2280883 C33.351875,50.8052749 33.0253711,50.4624633 32.621875,50.4624633 L25.778125,50.4624633 C25.3746289,50.4624633 25.048125,50.8052749 25.048125,51.2280883 L25.048125,59.71875 L22.0033692,59.71875 L22.0033692,9.59835053 Z M31.891875,59.71875 L26.508125,59.71875 L26.508125,51.9937133 L31.891875,51.9937133 L31.891875,59.71875 Z M3.01410153,19.5320359 C3.67994139,18.3566819 8.20537104,11.0107193 17.4073633,10.6376267 L17.4073633,59.71875 L14.3626074,59.71875 L14.3626074,51.2280883 C14.3626074,50.8052749 14.0361035,50.4624633 13.6326074,50.4624633 L6.78885743,50.4624633 C6.38536132,50.4624633 6.05885743,50.8052749 6.05885743,51.2280883 L6.05885743,59.71875 L3.01410153,59.71875 L3.01410153,19.5320359 L3.01410153,19.5320359 Z M12.9026074,59.71875 L7.51885743,59.71875 L7.51885743,51.9937133 L12.9026074,51.9937133 L12.9026074,59.71875 Z" id="Shape"></path>
                                </g>
                            </g>
                        </g>
                    </g>
                </g>
            </g>
            <text id="RENAME-RECLAIM" font-family="Raleway-Bold, Raleway" font-size="38" font-weight="bold" line-spacing="34" letter-spacing="2.57058824" fill="#FFFFFF">
                <tspan x="45.31" y="36">RE</tspan>
                <tspan x="98.5591765" y="36" letter-spacing="0.335294118">NAME</tspan>
                <tspan x="217.814353" y="41.0741577"></tspan>
                <tspan x="45.31" y="70">RECLAIM</tspan>
            </text>
        </g>
    </g>
</svg>